# xmcd
#
# Track frame offsets:
#	150
#	13934
#	29207
#	42594
#	56284
#	68278
#	80901
#	101448
#	116235
#	129577
#	145865
#	160106
#	172392
#	187256
#	206740
#	227015
#	240114
#	253892
#	270039
#	287579
#	299548
#	315472
#
# Disc length: 4435 seconds
#
# Revision: 0
# Processed by: cddbd v1.5.1PL2 Copyright (c) Steve Scherf et al.
# Submitted via: audiograbber 1.83.01
#
DISCID=49115116
DTITLE=Various Artist - Sertanejo Raizes By Miro 4
DYEAR=2006
DGENRE=Country
TTITLE0=Chico Rey and Parana Part_ Esp_ Leonardo - Alma Transparente
TTITLE1=Joao Mineiro and Marciano - As Paredes Azuis
TTITLE2=Milionario and Jose Rico - Canarinho do Peito Amarelo
TTITLE3=Chrystian and Ralf - Camisa Manchada
TTITLE4=Chico Rey and Parana - Amor com amor se paga
TTITLE5=Gilberto and Gilmar - Musica Da Saudade
TTITLE6=Milionario and Jose Rico - Sonhei com você
TTITLE7=Guilherme and Santiago - Do Outro Lado Da Cidade
TTITLE8=Chrystian and Ralf - Flecha Certeira
TTITLE9=Milionario and Jose Rico - Heroi da velocidade
TTITLE10=Gilberto and Gilmar - Palavras De Amor
TTITLE11=Jad Jefferson - Saco de ouro
TTITLE12=Renato Teixeira e Pena Branca e Xavantinho - Chalana
TTITLE13=Chrystian and Ralf - Piscina
TTITLE14=Zeze di Camargo and Luciano - Meu Pais
TTITLE15=Joao Mineiro and Marciano - Crises de Amor
TTITLE16=Teodoro and Sampaio - viola em noite de luar
TTITLE17=Joao Mineiro and Marciano - Se eu nao Puder te Esquecer
TTITLE18=Matogrosso and Mathias - Tentei te esquecer
TTITLE19=Milionario and Jose Rico - Destino Cruel
TTITLE20=Chico Rey and Parana - Dois Passarinhos
TTITLE21=Milionario and Jose Rico - Praia Deserta
EXTD=
EXTT0=
EXTT1=
EXTT2=
EXTT3=
EXTT4=
EXTT5=
EXTT6=
EXTT7=
EXTT8=
EXTT9=
EXTT10=
EXTT11=
EXTT12=
EXTT13=
EXTT14=
EXTT15=
EXTT16=
EXTT17=
EXTT18=
EXTT19=
EXTT20=
EXTT21=
PLAYORDER=
